<svg width="181" height="42" xmlns="http://www.w3.org/2000/svg">
 <defs>
  <linearGradient y2="12.26%" y1="69.595%" x2="-2.592%" x1="102.454%" id="a">
   <stop stop-color="#1E87F0" offset="0%"/>
   <stop stop-color="#2AC4EE" offset="100%"/>
  </linearGradient>
  <linearGradient y2="74.536%" y1="25.624%" x2="86.222%" x1="27.337%" id="b">
   <stop stop-color="#42BEF9" offset="0%"/>
   <stop stop-color="#1F8AF0" offset="100%"/>
  </linearGradient>
 </defs>
 <g>
  <title>Layer 1</title>
  <g id="svg_1" fill-rule="evenodd" fill="none">
   <path id="svg_2" d="m62.948,10.733z" fill="#FFF"/>
   <g id="svg_3" fill-rule="nonzero">
    <path id="svg_4" transform="rotate(-31 10.07 36.757)" opacity="0.139" d="m35.781,11.218l-7.499,-4.242l-7.825,4.732l7.603,4.09l7.721,-4.58zm3.586,1.827l-7.744,4.585l8.777,4.94l0,13.047l-11.836,6.548l-11.7,-6.548l0,-10.184l-7.844,-3.793l0,18.43l19.263,11.138l19.963,-11.055l0,-22.115l-8.878,-4.993l-0.001,0z" fill="url(#a)"/>
    <path id="svg_5" transform="rotate(-31 12.638 36.757)" opacity="0.284" d="m38.348,11.218l-7.5,-4.242l-7.825,4.732l7.604,4.09l7.72,-4.58l0.001,0zm3.586,1.827l-7.744,4.585l8.776,4.939l0,13.047l-11.836,6.548l-11.699,-6.548l0,-10.183l-7.845,-3.793l0,18.43l19.263,11.138l19.963,-11.055l0,-22.115l-8.878,-4.993z" fill="url(#a)"/>
    <path id="svg_6" transform="rotate(-31 15.204 36.757)" d="m40.914,11.218l-7.499,-4.242l-7.825,4.732l7.603,4.09l7.721,-4.58zm3.586,1.827l-7.744,4.585l8.777,4.939l0,13.047l-11.837,6.548l-11.699,-6.548l0,-10.183l-7.845,-3.793l0,18.43l19.263,11.138l19.963,-11.055l0,-22.115l-8.878,-4.993z" fill="url(#b)"/>
   </g>
  </g>
  <text transform="matrix(0.727409 0 0 0.672798 -2.89894 -8.29653)" stroke="#000000" font-weight="normal" xml:space="preserve" text-anchor="start" font-family="'Arimo'" font-size="26" stroke-width="0" id="svg_8" y="36.67394" x="80.4281" fill="#ffffff">Open-Tournoi</text>
  <text transform="matrix(0.727409 0 0 0.672798 -2.89894 -8.29653)" stroke="#000000" font-weight="normal" xml:space="preserve" text-anchor="start" font-family="'Arimo'" font-size="26" stroke-width="0" id="svg_9" y="65.37549" x="123.09252" fill="#ffffff">Palet</text>
 </g>
</svg>